<?xml version="1.0" standalone="no"?>
<!DOCTYPE svg PUBLIC "-//W3C//DTD SVG 20010904//EN"
 "http://www.w3.org/TR/2001/REC-SVG-20010904/DTD/svg10.dtd">
<svg version="1.0" xmlns="http://www.w3.org/2000/svg"
 width="700.000000pt" height="700.000000pt" viewBox="0 0 700.000000 700.000000"
 preserveAspectRatio="xMidYMid meet">
<metadata>
Created by potrace 1.14, written by Peter Selinger 2001-2017
</metadata>
<g transform="translate(0.000000,700.000000) scale(0.100000,-0.100000)"
fill="#000000" stroke="none">
<path d="M3280 6994 c-19 -2 -84 -9 -145 -14 -410 -40 -846 -169 -1225 -362
-343 -176 -628 -387 -908 -672 -561 -572 -883 -1252 -984 -2081 -7 -56 -12
-217 -12 -365 0 -268 7 -362 45 -588 96 -575 348 -1138 716 -1597 115 -144
339 -373 483 -494 537 -451 1157 -715 1885 -803 135 -16 590 -16 735 1 512 58
1002 222 1426 478 635 383 1136 957 1422 1628 255 599 339 1259 242 1898 -93
610 -340 1176 -726 1662 -116 147 -431 459 -574 569 -523 404 -1101 642 -1750
722 -117 15 -553 27 -630 18z m-1188 -1723 c231 -65 2690 -772 2780 -800 154
-46 238 -105 310 -215 95 -147 106 -342 27 -502 -44 -89 -115 -151 -357 -314
-127 -85 -231 -158 -232 -162 0 -4 195 -202 433 -440 400 -399 437 -439 469
-505 71 -141 73 -282 8 -422 -25 -53 -59 -93 -198 -233 -137 -139 -178 -175
-234 -202 -133 -67 -272 -70 -412 -9 -55 24 -105 70 -506 470 -245 244 -450
443 -456 443 -5 0 -81 -106 -169 -236 -171 -253 -214 -301 -319 -352 -246
-119 -543 -21 -660 220 -54 111 -876 2974 -876 3052 0 133 100 235 232 236 35
0 99 -12 160 -29z"/>
<path d="M2315 4653 c7 -26 165 -574 350 -1218 184 -643 339 -1179 344 -1190
6 -15 47 39 222 300 263 391 279 412 349 448 47 25 64 28 115 24 34 -2 78 -14
100 -25 24 -12 251 -232 560 -541 286 -287 525 -521 530 -521 13 0 185 172
185 185 0 6 -234 244 -521 530 -305 305 -529 536 -541 559 -11 22 -23 65 -25
96 -6 67 21 141 70 188 18 17 185 133 372 258 393 263 350 232 342 240 -3 3
-167 53 -364 109 -1477 424 -2029 583 -2085 601 -16 5 -16 1 -3 -43z"/>
</g>
</svg>
