<svg xmlns="http://www.w3.org/2000/svg" width="512" height="512" fill="none"><g clip-path="url(#a)"><circle cx="256" cy="256" r="256" fill="#228BE6"/><path stroke="#fff" stroke-linecap="round" stroke-linejoin="round" stroke-width="36" d="M202.521 352.259a18.606 18.606 0 0 0 15.611 14.386 18.607 18.607 0 0 0 18.929-9.611l32.4-47.949 76.07 76.07a16.535 16.535 0 0 0 18.027 3.586 16.545 16.545 0 0 0 5.366-3.586l16.231-16.231a16.545 16.545 0 0 0 3.586-18.027 16.535 16.535 0 0 0-3.586-5.366l-76.07-76.07 48.259-32.4a18.606 18.606 0 0 0 4.852-28.992 18.604 18.604 0 0 0-9.643-5.548L142 142l60.521 210.259Z"/></g><defs><clipPath id="a"><path fill="#fff" d="M0 0h512v512H0z"/></clipPath></defs></svg>